<svg width="248" height="249" viewBox="0 0 248 249" fill="none" xmlns="http://www.w3.org/2000/svg">
<path d="M201.5 197H46.4999C43.6583 197 41.3333 199.325 41.3333 202.167C41.3333 205.008 43.6583 207.333 46.4999 207.333H201.5C204.342 207.333 206.667 205.008 206.667 202.167C206.667 199.325 204.342 197 201.5 197Z" fill="#6E797A"/>
<path d="M191.167 83.3334H108.5C105.658 83.3334 103.333 85.6584 103.333 88.5V197H196.333V88.5C196.333 85.6584 194.008 83.3334 191.167 83.3334Z" fill="#B0B6B7"/>
<path d="M144.667 93.6667V104H186V93.6667H144.667ZM144.667 124.667H186V114.333H144.667V124.667ZM144.667 145.333H186V135H144.667V145.333ZM144.667 166H186V155.667H144.667V166ZM144.667 186.667H186V176.333H144.667V186.667Z" fill="#2B68D3"/>
<path d="M144.667 73H175.667V83.3334H144.667V73Z" fill="#6E797A"/>
<path d="M139.5 42H56.8334C53.9917 42 51.6667 44.325 51.6667 47.1667V197H144.667V47.1667C144.667 44.325 142.342 42 139.5 42Z" fill="#C8CCCC"/>
<path d="M61.9999 83.3334H134.333V73H61.9999V83.3334ZM61.9999 145.333H134.333V135H61.9999V145.333ZM61.9999 124.667H134.333V114.333H61.9999V124.667ZM61.9999 104H134.333V93.6667H61.9999V104ZM61.9999 166H134.333V155.667H61.9999V166ZM61.9999 186.667H134.333V176.333H61.9999V186.667ZM61.9999 52.3334V62.6667H134.333V52.3334H61.9999Z" fill="#679EFF"/>
</svg>
