<svg width="20" height="19" viewBox="0 0 20 19" fill="none" xmlns="http://www.w3.org/2000/svg">
<path d="M16.5506 9.30799H13.884C13.8826 10.4053 13.4467 11.3733 12.7293 12.0946C12.008 12.812 11.04 13.2466 9.94262 13.2493C8.84662 13.248 7.87863 12.812 7.15596 12.0946C6.43996 11.3733 6.00398 10.4053 6.00264 9.30799C6.00398 8.21199 6.44 7.24399 7.15733 6.52266C7.87867 5.80532 8.84662 5.36932 9.94262 5.36798C11.04 5.36932 12.008 5.80532 12.7293 6.52266C13.4467 7.24399 13.8826 8.21199 13.884 9.30799H16.5506H19.2173C19.216 4.18532 15.0653 0.0373192 9.94262 0.0346527C4.81995 0.0373192 0.670645 4.18666 0.669312 9.30799C0.670645 14.432 4.82129 18.58 9.94262 18.5813C15.0653 18.5813 19.216 14.432 19.2173 9.30799H16.5506Z" fill="#47A2DF"/>
</svg>
