<svg width="19" height="20" viewBox="0 0 19 20" fill="none" xmlns="http://www.w3.org/2000/svg">
<path d="M2.68663 10.212H5.35329C5.35462 9.11599 5.78928 8.14797 6.50661 7.42664C7.22794 6.70931 8.19733 6.27332 9.29333 6.27199C10.3893 6.27332 11.3573 6.70931 12.0786 7.42664C12.7959 8.14797 13.232 9.11599 13.2333 10.212C13.232 11.3093 12.7959 12.2773 12.0786 12.9986C11.3573 13.716 10.3893 14.152 9.29333 14.1533C8.19733 14.152 7.22794 13.716 6.50661 12.9986C5.78928 12.2773 5.35462 11.3093 5.35329 10.212H2.68663H0.0199585C0.0212918 15.3347 4.17066 19.484 9.29333 19.4866C14.416 19.484 18.564 15.3347 18.5666 10.212C18.564 5.08933 14.416 0.941319 9.29333 0.938652C4.17066 0.941319 0.0212918 5.08933 0.0199585 10.212H2.68663Z" fill="#47A2DF"/>
</svg>
