<svg width="20" height="20" viewBox="0 0 20 20" fill="none" xmlns="http://www.w3.org/2000/svg">
<path d="M10.104 15.6387C7.06664 15.6387 4.60267 13.176 4.60267 10.1373C4.60267 7.09732 7.06664 4.63465 10.104 4.63465C13.1426 4.63465 15.6066 7.09732 15.6066 10.1373C15.6066 13.176 13.1426 15.6387 10.104 15.6387ZM18.8613 11.6427L18.216 11.408C17.8574 11.2773 17.636 10.9253 17.656 10.544C17.664 10.4093 17.668 10.2733 17.668 10.1373C17.668 10.0067 17.664 9.87733 17.6574 9.748L18.9587 9.39865C19.416 9.27731 19.6854 8.80797 19.5627 8.3533L19.188 6.95197C19.0667 6.4973 18.5973 6.22533 18.14 6.348L17.476 6.52664C17.1093 6.62398 16.7267 6.46533 16.5267 6.14266L16.4387 6.00666C16.2307 5.68799 16.248 5.27333 16.492 4.98133L16.9346 4.4533C17.2386 4.09197 17.192 3.5533 16.8294 3.25063L15.7187 2.31864C15.3574 2.01464 14.8173 2.06131 14.5147 2.42397L14.0733 2.94933C13.8306 3.23866 13.428 3.33197 13.0827 3.18397C12.8254 3.0733 12.5627 2.97731 12.292 2.89598C11.9307 2.78665 11.684 2.45733 11.684 2.08133V1.39331C11.684 0.92131 11.3014 0.538654 10.8294 0.538654H9.38002C8.90802 0.538654 8.52533 0.92131 8.52533 1.39331V2.07866C8.52533 2.46 8.27064 2.78798 7.90664 2.89865L7.75065 2.94666C7.38932 3.06533 6.99465 2.94131 6.77598 2.62931L6.38269 2.06798C6.11202 1.68265 5.58003 1.58797 5.19336 1.85864L4.00534 2.69064C3.61868 2.96131 3.52537 3.49466 3.79603 3.88L4.19069 4.44399C4.40936 4.75599 4.38936 5.17065 4.15469 5.47065L4.05599 5.59731C3.82799 5.90131 3.43198 6.02798 3.07598 5.89731L2.428 5.66265C1.98533 5.49998 1.49467 5.72932 1.33334 6.17332L0.837309 7.53465C0.675975 7.97865 0.905353 8.46931 1.34935 8.63065L1.99336 8.86531C2.35336 8.99598 2.57469 9.34798 2.55202 9.72931C2.54536 9.86398 2.54135 9.99999 2.54135 10.1373C2.54135 10.2667 2.54399 10.396 2.55065 10.5253L1.25065 10.8747C0.794655 10.996 0.523983 11.4653 0.645316 11.92L1.02136 13.3213C1.14269 13.7773 1.61197 14.048 2.06797 13.9253L2.73204 13.748C3.0987 13.6493 3.48132 13.808 3.68399 14.1306L3.76934 14.2666C3.97734 14.5853 3.96135 15 3.71602 15.292L3.27468 15.8186C2.97201 16.1813 3.01868 16.72 3.38002 17.024L4.49069 17.9546C4.85203 18.2586 5.39067 18.212 5.69467 17.8493L6.13731 17.3226C6.37864 17.0346 6.78003 16.9413 7.1267 17.0893C7.3827 17.2 7.64665 17.296 7.91732 17.3773C8.27732 17.4867 8.52533 17.816 8.52533 18.1933V18.88C8.52533 19.352 8.90802 19.7346 9.38002 19.7346H10.8294C11.3014 19.7346 11.684 19.352 11.684 18.88V18.1946C11.684 17.8133 11.9373 17.4853 12.3027 17.3747L12.4574 17.3266C12.8187 17.208 13.2147 17.332 13.432 17.644L13.8253 18.204C14.096 18.5907 14.6294 18.6853 15.016 18.4147L16.2027 17.584C16.5893 17.312 16.684 16.7786 16.4133 16.392L16.0187 15.8293C15.8014 15.5173 15.8187 15.1027 16.0547 14.804L16.152 14.6747C16.3814 14.372 16.776 14.2467 17.1346 14.376L17.78 14.6107C18.224 14.7733 18.7146 14.544 18.876 14.1L19.3706 12.7387C19.532 12.2947 19.3053 11.804 18.8613 11.6427Z" fill="#47A2DF"/>
</svg>
