<svg width="29" height="29" viewBox="0 0 29 29" fill="none" xmlns="http://www.w3.org/2000/svg">
<path d="M14.2613 25.0813C8.4173 25.0813 3.67731 20.3413 3.67731 14.496C3.67731 8.65063 8.4173 3.91064 14.2613 3.91064C20.108 3.91064 24.848 8.65063 24.848 14.496C24.848 20.3413 20.108 25.0813 14.2613 25.0813ZM26.7773 14.496C26.7773 14.3546 26.7706 14.2146 26.7666 14.0746L28.2119 13.9226L28.0267 12.156L26.5827 12.308C26.5333 12.0293 26.476 11.7546 26.4106 11.4826L27.788 11.0346L27.2399 9.34531L25.8613 9.79329C25.7533 9.53196 25.6413 9.27462 25.5187 9.02262L26.7733 8.29863L25.884 6.75996L24.6306 7.48528C24.472 7.25195 24.304 7.02663 24.132 6.8053L25.2106 5.8333L24.0226 4.51331L22.9426 5.48528C22.7399 5.29062 22.532 5.10128 22.316 4.91995L23.1706 3.74664L21.7333 2.7013L20.88 3.87597C20.6413 3.72664 20.4 3.58528 20.1506 3.45195L20.7413 2.12929L19.1187 1.40664L18.528 2.72796C18.2653 2.63329 17.9973 2.5493 17.7267 2.47063L18.028 1.05195L16.2907 0.682646L15.988 2.10263C15.712 2.06396 15.432 2.03598 15.1506 2.01598V0.562626H13.3733V2.01598C13.0919 2.03598 12.812 2.06396 12.536 2.10263L12.2346 0.682646L10.496 1.05195L10.7987 2.47063C10.528 2.5493 10.2573 2.63329 9.99463 2.72796L9.40661 1.40664L7.78396 2.12929L8.37328 3.45195C8.12528 3.58528 7.88131 3.72664 7.64398 3.87597L6.79196 2.7013L5.35466 3.74664L6.20661 4.91995C5.99195 5.10128 5.78399 5.29062 5.58265 5.48528L4.50264 4.51331L3.31332 5.8333L4.39333 6.8053C4.22 7.02663 4.05197 7.25195 3.89463 7.48528L2.63864 6.75996L1.75062 8.29863L3.00531 9.02262C2.88264 9.27462 2.77064 9.53196 2.66397 9.79329L1.28532 9.34531L0.737276 11.0346L2.11462 11.4826C2.04795 11.7546 1.99065 12.0293 1.94131 12.308L0.498669 12.156L0.311951 13.9226L1.75733 14.0746C1.75333 14.2146 1.74795 14.3546 1.74795 14.496C1.74795 14.6373 1.75333 14.7773 1.75733 14.9173L0.311951 15.0693L0.498669 16.836L1.94131 16.6839C1.99065 16.9626 2.04795 17.2373 2.11462 17.5093L0.737276 17.9573L1.28532 19.6466L2.66397 19.1986C2.77064 19.46 2.88261 19.7173 3.00661 19.9693L1.75062 20.6933L2.63864 22.232L3.89463 21.5066C4.05197 21.74 4.22 21.9653 4.39333 22.1866L3.31332 23.1586L4.50264 24.4786L5.58265 23.5066C5.78399 23.7013 5.99195 23.8906 6.20661 24.072L5.35466 25.2466L6.79196 26.2906L7.64398 25.116C7.88131 25.2653 8.12528 25.4066 8.37328 25.5386L7.78396 26.8626L9.40661 27.5853L9.99463 26.264C10.2586 26.36 10.528 26.4439 10.7987 26.5213L10.496 27.94L12.2346 28.3093L12.536 26.8893C12.812 26.928 13.0919 26.956 13.3733 26.976V28.4293H15.1506V26.976C15.432 26.956 15.712 26.928 15.988 26.8893L16.2907 28.3093L18.028 27.94L17.7267 26.5213C17.9973 26.4439 18.2653 26.36 18.528 26.264L19.1187 27.5853L20.7413 26.8626L20.1506 25.54C20.4 25.4066 20.6413 25.2653 20.88 25.116L21.7333 26.2906L23.1706 25.2466L22.316 24.072C22.532 23.8906 22.7399 23.7013 22.9426 23.5066L24.0226 24.4786L25.2106 23.1586L24.132 22.1866C24.304 21.9653 24.472 21.74 24.6306 21.5066L25.884 22.232L26.7733 20.6933L25.5187 19.9693C25.6413 19.7173 25.7533 19.46 25.8613 19.1986L27.2399 19.6466L27.788 17.9573L26.4106 17.5093C26.476 17.2373 26.5333 16.9626 26.5827 16.6839L28.0267 16.836L28.2119 15.0693L26.7666 14.9173C26.7706 14.7773 26.7773 14.6373 26.7773 14.496Z" fill="#47A2DF"/>
</svg>
